<svg width="32" height="32" viewBox="0 0 32 32" fill="none" xmlns="http://www.w3.org/2000/svg">
<g clip-path="url(#clip0_644_3007)">
<mask id="mask0_644_3007" style="mask-type:luminance" maskUnits="userSpaceOnUse" x="0" y="1" width="32" height="31">
<path d="M0.678955 1.35767H31.321V32H0.678955V1.35767Z" fill="white"/>
</mask>
<g mask="url(#mask0_644_3007)">
<mask id="mask1_644_3007" style="mask-type:luminance" maskUnits="userSpaceOnUse" x="0" y="1" width="32" height="31">
<path d="M16 1.35767C7.53829 1.35767 0.678955 8.21733 0.678955 16.679C0.678955 25.1407 7.53829 32 16 32C24.4616 32 31.321 25.1407 31.321 16.679C31.321 8.21733 24.4616 1.35767 16 1.35767Z" fill="white"/>
</mask>
<g mask="url(#mask1_644_3007)">
<path d="M0.678955 1.35767H31.321V32H0.678955V1.35767Z" fill="#00A1E0"/>
</g>
</g>
<mask id="mask2_644_3007" style="mask-type:luminance" maskUnits="userSpaceOnUse" x="9" y="7" width="7" height="3">
<path d="M9.89868 7.73291H15.104V9.81324H9.89868V7.73291Z" fill="white"/>
</mask>
<g mask="url(#mask2_644_3007)">
<path d="M15.067 9.47091C14.8253 8.47824 13.7733 7.73291 12.5116 7.73291C11.1116 7.73291 9.97795 8.65324 9.91528 9.80724C10.696 9.59524 11.556 9.47091 12.5116 9.47091H15.067Z" fill="#020617"/>
</g>
<mask id="mask3_644_3007" style="mask-type:luminance" maskUnits="userSpaceOnUse" x="16" y="7" width="7" height="3">
<path d="M16.896 7.73291H22.1013V9.81324H16.896V7.73291Z" fill="white"/>
</mask>
<g mask="url(#mask3_644_3007)">
<path d="M22.064 9.80724C22.0014 8.65324 20.8674 7.73291 19.4677 7.73291C18.206 7.73291 17.153 8.47824 16.9114 9.47091H19.4677C20.423 9.47091 21.283 9.59524 22.064 9.80724Z" fill="#020617"/>
</g>
<path d="M8.59895 21.7324C8.11695 21.6811 7.65628 21.4831 7.30062 21.2058C7.22162 21.1451 7.14228 21.0851 7.07628 21.0174C6.89028 20.8338 6.74928 20.6324 6.63362 20.4184C6.47728 20.1281 6.37462 19.8111 6.33028 19.4644C6.26862 18.8681 6.40062 18.2321 6.75362 17.6211C6.13628 17.9721 5.70862 18.6934 5.65128 19.4644C5.61562 19.7971 5.67028 20.1414 5.77395 20.4708C5.87195 20.7844 6.02328 21.0728 6.21728 21.3284C6.28695 21.4204 6.35128 21.5194 6.43128 21.5988C7.02762 22.1914 7.81695 22.4748 8.59795 22.4068C9.36828 22.3514 10.09 21.9228 10.4423 21.3068C9.83162 21.6631 9.19528 21.7961 8.59895 21.7324Z" fill="#020617"/>
<mask id="mask4_644_3007" style="mask-type:luminance" maskUnits="userSpaceOnUse" x="3" y="10" width="26" height="15">
<path d="M3.79761 10.3254H28.1816V24.2451H3.79761V10.3254Z" fill="white"/>
</mask>
<g mask="url(#mask4_644_3007)">
<path d="M28.153 19.2818C28.1537 19.2634 28.1627 19.2498 28.1627 19.2314C28.1627 18.4084 27.227 12.1581 21.903 10.6641C21.1753 10.4608 20.3693 10.3401 19.4677 10.3401H12.5117C11.61 10.3401 10.804 10.4608 10.076 10.6641C4.75232 12.1581 3.81665 18.4074 3.81665 19.2314C3.81665 19.2498 3.82532 19.2634 3.82598 19.2828C3.82365 19.3428 3.81665 19.4024 3.81665 19.4651C3.81665 20.0154 3.91398 20.5401 4.08532 21.0321C4.73565 22.9004 6.50865 24.2451 8.59898 24.2451C10.6883 24.2451 12.4603 22.9021 13.1107 21.0354C13.208 20.7574 13.2793 20.4671 13.3237 20.1664H18.6553C18.6997 20.4671 18.771 20.7574 18.8677 21.0354C19.5197 22.9021 21.2917 24.2451 23.3803 24.2451C25.4723 24.2451 27.2477 22.8971 27.8957 21.0268C28.066 20.5358 28.1627 20.0118 28.1627 19.4651C28.1627 19.4024 28.1557 19.3428 28.153 19.2818ZM12.1717 21.0354C11.9813 21.4684 11.7187 21.8768 11.3647 22.2304C9.83865 23.7548 7.35732 23.7548 5.83198 22.2304C5.55632 21.9551 5.34765 21.6411 5.17198 21.3154C5.00765 21.0094 4.88098 20.6914 4.80265 20.3611C4.50365 19.0861 4.83898 17.6914 5.83198 16.6998C7.35732 15.1754 9.83965 15.1754 11.3657 16.6998C12.3073 17.6411 12.663 18.9464 12.442 20.1658C12.388 20.4644 12.295 20.7548 12.1717 21.0354ZM15.9897 19.0308C15.0297 19.0308 14.2507 18.2521 14.2507 17.2924C14.2507 16.3331 15.0297 15.5544 15.9897 15.5544C16.9487 15.5544 17.7287 16.3331 17.7287 17.2924C17.7287 18.2521 16.9487 19.0308 15.9897 19.0308ZM26.147 22.2304C24.622 23.7558 22.1397 23.7548 20.6143 22.2304C20.2607 21.8778 19.998 21.4684 19.8077 21.0354C19.684 20.7558 19.591 20.4654 19.538 20.1664C19.3163 18.9464 19.6727 17.6411 20.6143 16.7008C22.1397 15.1764 24.6203 15.1764 26.147 16.7008C27.139 17.6931 27.4747 19.0871 27.1767 20.3621C27.0983 20.6931 26.9713 21.0121 26.8053 21.3181C26.6287 21.6431 26.4217 21.9551 26.147 22.2304Z" fill="#020617"/>
</g>
<path d="M25.2244 17.6216C25.7908 18.5776 25.7751 19.6249 25.3454 20.4192C25.2298 20.6329 25.0908 20.8319 24.9178 21.0016C24.8428 21.0779 24.7594 21.1422 24.6768 21.2066C23.8594 21.8419 22.6378 21.9582 21.5371 21.3082C21.8891 21.9252 22.6091 22.3519 23.3811 22.4102C24.1534 22.4849 24.9698 22.1756 25.5331 21.6159C25.6194 21.5289 25.6871 21.4272 25.7611 21.3292C25.9584 21.0692 26.1088 20.7806 26.2054 20.4722C26.3071 20.1446 26.3594 19.8022 26.3271 19.4659C26.2681 18.6942 25.8401 17.9746 25.2244 17.6216Z" fill="#020617"/>
<path d="M16.8591 17.2923C16.8591 17.3493 16.8534 17.406 16.8424 17.462C16.8314 17.518 16.8148 17.5723 16.7931 17.625C16.7711 17.6777 16.7444 17.7277 16.7128 17.7753C16.6808 17.8227 16.6448 17.8667 16.6044 17.907C16.5641 17.9473 16.5201 17.9833 16.4728 18.015C16.4251 18.0467 16.3751 18.0733 16.3225 18.0953C16.2698 18.117 16.2155 18.1337 16.1595 18.1447C16.1035 18.156 16.0468 18.1613 15.9898 18.1613C15.9325 18.1613 15.8761 18.156 15.8201 18.1447C15.7641 18.1337 15.7098 18.117 15.6568 18.0953C15.6041 18.0733 15.5541 18.0467 15.5065 18.015C15.4591 17.9833 15.4151 17.9473 15.3748 17.907C15.3345 17.8667 15.2985 17.8227 15.2668 17.7753C15.2351 17.7277 15.2081 17.6777 15.1865 17.625C15.1645 17.5723 15.1481 17.518 15.1368 17.462C15.1258 17.406 15.1201 17.3493 15.1201 17.2923C15.1201 17.2353 15.1258 17.179 15.1368 17.123C15.1481 17.067 15.1645 17.0127 15.1865 16.96C15.2081 16.907 15.2351 16.857 15.2668 16.8097C15.2985 16.762 15.3345 16.7183 15.3748 16.678C15.4151 16.6377 15.4591 16.6017 15.5065 16.57C15.5541 16.538 15.6041 16.5113 15.6568 16.4897C15.7098 16.4677 15.7641 16.4513 15.8201 16.44C15.8761 16.429 15.9325 16.4233 15.9898 16.4233C16.0468 16.4233 16.1035 16.429 16.1595 16.44C16.2155 16.4513 16.2698 16.4677 16.3225 16.4897C16.3751 16.5113 16.4251 16.538 16.4728 16.57C16.5201 16.6017 16.5641 16.6377 16.6044 16.678C16.6448 16.7183 16.6808 16.762 16.7128 16.8097C16.7444 16.857 16.7711 16.907 16.7931 16.96C16.8148 17.0127 16.8314 17.067 16.8424 17.123C16.8534 17.179 16.8591 17.2353 16.8591 17.2923Z" fill="#020617"/>
</g>
<defs>
<clipPath id="clip0_644_3007">
<rect width="32" height="32" fill="white"/>
</clipPath>
</defs>
</svg>
